<svg width="311" height="312" viewBox="0 0 311 312" fill="none" xmlns="http://www.w3.org/2000/svg">
<path d="M68.5155 81.9704L86.273 97.6713L87.9117 95.7957L70.1542 80.0806L76.2288 73.0756L45.1496 45.7944L31.8704 61.0975L62.9495 88.3786L68.5155 81.9704Z" fill="white"/>
<path d="M86.2448 65.0144L100.131 84.5233L103.282 82.2499L89.3951 62.7126L95.8793 57.9952L71.6517 24.4053L56.55 35.4172L80.7777 69.0071L86.2448 65.0144Z" fill="white"/>
<path d="M106.94 52.4201L116.321 74.7992L121.194 72.7247L111.786 50.3172L117.931 47.6459L101.586 9.55176L85.8914 16.3721L102.236 54.4662L106.94 52.4201Z" fill="white"/>
<path d="M129.839 44.4729L134.247 68.6849L140.816 67.4772L136.394 43.2083L141.536 42.2137L133.78 1.4624L118.523 4.40365L126.279 45.1549L129.839 44.4729Z" fill="white"/>
<path d="M154.152 41.5469L153.22 66.4694L161.301 66.7678L162.233 41.7885L165.849 41.9022L167.135 0.440477L153.149 0L151.864 41.4759L154.152 41.5469Z" fill="white"/>
<path d="M179.078 44.0513L172.636 68.3771L181.804 70.821L188.246 46.4811L189.998 46.9358L200.48 6.80971L188.444 3.64111L177.976 43.7672L179.078 44.0513Z" fill="white"/>
<path d="M181.29 275.586L186.39 274.649L180.555 242.607L165.27 245.421L171.104 277.462L174.721 276.794L181.007 309.802L187.576 308.537L181.29 275.586Z" fill="white"/>
<path d="M83.6551 245.095L100.056 226.055L92.8799 219.817L76.5068 238.828L75.6451 238.075L48.5215 269.335L57.8876 277.562L85.0112 246.302L83.6551 245.095Z" fill="white"/>
<path d="M65.2002 226.076L85.218 211.27L80.429 204.72L60.4536 219.497L59.1115 217.636L25.7156 242.004L33.9374 253.385L67.3192 229.017L65.2002 226.076Z" fill="white"/>
<path d="M51.8287 203.8L74.2763 193.826L71.5781 187.688L49.187 197.62L47.746 194.28L9.87183 210.72L16.0311 225.071L53.9053 208.631L51.8287 203.8Z" fill="white"/>
<path d="M44.9359 127.948L67.8497 133.902L68.4713 131.472L45.5716 125.533L47.7189 117.292L7.82459 106.763L2.69653 126.414L42.5909 136.942L44.9359 127.948Z" fill="white"/>
<path d="M54.4555 102.983L75.3068 114.095L75.8153 113.129L54.9641 102.031L59.8096 92.8382L23.3481 73.4146L13.1626 92.7529L49.6241 112.177L54.4555 102.983Z" fill="white"/>
<path d="M235.257 249.865L216.313 223.252L201.155 234.164L220.085 260.778L225.623 256.799L244.764 283.327L247.915 281.026L228.787 254.526L235.257 249.865Z" fill="white"/>
<path d="M212.17 265.086L199.554 235.005L183.803 241.684L196.418 271.764L201.207 269.732L214.274 300.196L219.134 298.093L206.081 267.672L212.17 265.086Z" fill="white"/>
<path d="M158.956 278.206L160.171 245.738L146.185 245.212L144.97 277.68L147.315 277.765L146.256 311.753L154.336 311.994L155.382 278.078L158.956 278.206Z" fill="white"/>
<path d="M130.932 275.443L139.239 244.113L127.217 240.901L118.924 272.232L120.055 272.53L111.409 305.68L120.577 308.095L129.209 274.974L130.932 275.443Z" fill="white"/>
<path d="M118.535 237.401L108.915 232.286L97.1755 254.566L95.9323 256.953L93.8698 260.86L77.8782 291.239L87.4845 296.354L104.31 264.398L118.535 237.401Z" fill="white"/>
<path d="M67.5707 174.554L66.5394 169.339L42.8628 174.099L41.9021 169.041L1.38623 176.841L4.59303 193.721L45.1089 185.921L43.8516 179.328L67.5707 174.554Z" fill="white"/>
<path d="M65.4357 150.4L41.6037 149.818L41.8156 143.012L0.579202 141.733L0 160.475L41.2364 161.768L41.4765 153.711L65.351 154.308L65.4357 150.4Z" fill="white"/>
<path d="M191.9 74.6975L201.52 79.8127L213.26 57.5189L232.571 20.8598L222.951 15.7446L205.942 48.0558L191.9 74.6975Z" fill="white"/>
<path d="M230.365 60.5767L209.259 85.0872L218.668 93.2715L239.759 68.7611L238.417 67.596L260.794 41.7925L253.66 35.5264L231.255 61.344L230.365 60.5767Z" fill="white"/>
<path d="M249.509 79.1866L223.473 98.4397L231.766 109.764L257.787 90.5111L255.682 87.6267L282.99 67.6915L278.243 61.1128L250.893 81.0764L249.509 79.1866Z" fill="white"/>
<path d="M268.185 110.583L298.813 97.2834L296.157 91.1167L265.487 104.43L264.004 101.035L234.366 114.192L240.638 128.486L270.276 115.343L268.185 110.583Z" fill="white"/>
<path d="M276.899 142.18L275.599 135.658L307.949 129.421L306.946 124.206L274.554 130.444L273.536 125.314L241.708 131.723L245.057 148.589L276.899 142.18Z" fill="white"/>
<path d="M245.268 150.378L244.816 169.134L277.336 169.93L277.534 161.944L310.083 162.953L310.21 159.046L277.633 158.037L277.803 151.174L245.268 150.378Z" fill="white"/>
<path d="M244.805 169.574L239.776 189.182L229.972 207.796L216.678 222.999L241.174 244.668L246.783 238.246L271.109 259.602L272.748 257.712L248.422 236.356L254.51 229.408L231.554 209.103L258.678 223.554L263.509 214.36L291.918 229.493L292.427 228.527L264.018 213.394L268.849 204.215L241.74 189.765L271.335 197.452L273.638 188.486L304.858 196.727L305.494 194.312L274.26 186.056L276.393 177.787L244.805 169.574Z" fill="white"/>
</svg>
