<svg width="54" height="54" viewBox="0 0 54 54" fill="none" xmlns="http://www.w3.org/2000/svg">
<path d="M10.5999 40.6007C12.8666 38.8673 15.3999 37.5007 18.1999 36.5007C20.9999 35.5007 23.9333 35.0007 26.9999 35.0007C30.0666 35.0007 32.9999 35.5007 35.7999 36.5007C38.5999 37.5007 41.1333 38.8673 43.3999 40.6007C44.9555 38.7784 46.1666 36.7118 47.0333 34.4007C47.8999 32.0895 48.3333 29.6229 48.3333 27.0007C48.3333 21.0895 46.2555 16.0562 42.0999 11.9007C37.9444 7.7451 32.911 5.66732 26.9999 5.66732C21.0888 5.66732 16.0555 7.7451 11.8999 11.9007C7.74436 16.0562 5.66659 21.0895 5.66659 27.0007C5.66659 29.6229 6.09992 32.0895 6.96659 34.4007C7.83325 36.7118 9.04436 38.7784 10.5999 40.6007ZM26.9999 29.6673C24.3777 29.6673 22.1666 28.7673 20.3666 26.9673C18.5666 25.1673 17.6666 22.9562 17.6666 20.334C17.6666 17.7118 18.5666 15.5007 20.3666 13.7007C22.1666 11.9007 24.3777 11.0007 26.9999 11.0007C29.6221 11.0007 31.8333 11.9007 33.6333 13.7007C35.4333 15.5007 36.3333 17.7118 36.3333 20.334C36.3333 22.9562 35.4333 25.1673 33.6333 26.9673C31.8333 28.7673 29.6221 29.6673 26.9999 29.6673ZM26.9999 53.6673C23.311 53.6673 19.8444 52.9673 16.5999 51.5673C13.3555 50.1673 10.5333 48.2673 8.13325 45.8673C5.73325 43.4673 3.83325 40.6451 2.43325 37.4007C1.03325 34.1562 0.333252 30.6895 0.333252 27.0007C0.333252 23.3118 1.03325 19.8451 2.43325 16.6007C3.83325 13.3562 5.73325 10.534 8.13325 8.13398C10.5333 5.73398 13.3555 3.83398 16.5999 2.43398C19.8444 1.03398 23.311 0.333984 26.9999 0.333984C30.6888 0.333984 34.1555 1.03398 37.3999 2.43398C40.6444 3.83398 43.4666 5.73398 45.8666 8.13398C48.2666 10.534 50.1666 13.3562 51.5666 16.6007C52.9666 19.8451 53.6666 23.3118 53.6666 27.0007C53.6666 30.6895 52.9666 34.1562 51.5666 37.4007C50.1666 40.6451 48.2666 43.4673 45.8666 45.8673C43.4666 48.2673 40.6444 50.1673 37.3999 51.5673C34.1555 52.9673 30.6888 53.6673 26.9999 53.6673Z" fill="#858D9D"/>
</svg>
