<svg width="32" height="32" viewBox="0 0 32 32" fill="none" xmlns="http://www.w3.org/2000/svg">
<path fill-rule="evenodd" clip-rule="evenodd" d="M0 16C0 7.16344 7.16344 0 16 0C24.8366 0 32 7.16344 32 16C32 24.8366 24.8366 32 16 32C7.16344 32 0 24.8366 0 16Z" fill="black"/>
<g clip-path="url(#clip0_316_2663)">
<path d="M15.9997 8.02734C14.2357 8.02928 12.5444 8.73086 11.297 9.97816C10.0496 11.2255 9.34782 12.9166 9.3457 14.6807C9.3457 16.394 10.6724 19.0753 13.289 22.65C13.6005 23.0768 14.0084 23.4239 14.4794 23.6633C14.9505 23.9026 15.4714 24.0274 15.9997 24.0274C16.5281 24.0274 17.0489 23.9026 17.52 23.6633C17.991 23.4239 18.3989 23.0768 18.7104 22.65C21.327 19.0753 22.6537 16.394 22.6537 14.6807C22.6516 12.9166 21.9498 11.2255 20.7024 9.97816C19.455 8.73086 17.7637 8.02928 15.9997 8.02734ZM15.9997 17.3327C15.4723 17.3327 14.9567 17.1763 14.5182 16.8833C14.0797 16.5902 13.7379 16.1738 13.536 15.6865C13.3342 15.1992 13.2814 14.6631 13.3843 14.1458C13.4872 13.6285 13.7411 13.1533 14.1141 12.7804C14.487 12.4075 14.9622 12.1535 15.4795 12.0506C15.9967 11.9477 16.5329 12.0005 17.0202 12.2023C17.5075 12.4042 17.9239 12.746 18.217 13.1845C18.51 13.623 18.6664 14.1386 18.6664 14.666C18.6664 15.3733 18.3854 16.0515 17.8853 16.5516C17.3852 17.0517 16.7069 17.3327 15.9997 17.3327Z" fill="white"/>
</g>
<defs>
<clipPath id="clip0_316_2663">
<rect width="16" height="16" fill="white" transform="translate(8 8)"/>
</clipPath>
</defs>
</svg>
