<svg width="32" height="32" viewBox="0 0 32 32" fill="none" xmlns="http://www.w3.org/2000/svg">
<path fill-rule="evenodd" clip-rule="evenodd" d="M0 16C0 7.16344 7.16344 0 16 0C24.8366 0 32 7.16344 32 16C32 24.8366 24.8366 32 16 32C7.16344 32 0 24.8366 0 16Z" fill="black"/>
<path d="M19.334 21.6673H12.6673C10.6673 21.6673 9.33398 20.6673 9.33398 18.334V13.6673C9.33398 11.334 10.6673 10.334 12.6673 10.334H19.334C21.334 10.334 22.6673 11.334 22.6673 13.6673V18.334C22.6673 20.6673 21.334 21.6673 19.334 21.6673Z" fill="white" stroke="white" stroke-width="1.5" stroke-miterlimit="10" stroke-linecap="round" stroke-linejoin="round"/>
<path d="M19.3327 14L17.246 15.6667C16.5593 16.2133 15.4327 16.2133 14.746 15.6667L12.666 14" stroke="black" stroke-width="1.5" stroke-miterlimit="10" stroke-linecap="round" stroke-linejoin="round"/>
</svg>
