<svg width="32" height="32" viewBox="0 0 32 32" fill="none" xmlns="http://www.w3.org/2000/svg">
<path fill-rule="evenodd" clip-rule="evenodd" d="M0 16C0 7.16344 7.16344 0 16 0C24.8366 0 32 7.16344 32 16C32 24.8366 24.8366 32 16 32C7.16344 32 0 24.8366 0 16Z" fill="black"/>
<path d="M22.6473 20.2207C22.6473 20.4607 22.594 20.7073 22.4806 20.9473C22.3673 21.1873 22.2207 21.414 22.0273 21.6273C21.7007 21.9873 21.3406 22.2473 20.934 22.414C20.534 22.5807 20.1007 22.6673 19.634 22.6673C18.954 22.6673 18.2273 22.5073 17.4607 22.1807C16.694 21.854 15.9273 21.414 15.1673 20.8607C14.4007 20.3007 13.674 19.6807 12.9807 18.994C12.294 18.3007 11.674 17.574 11.1207 16.814C10.574 16.054 10.134 15.294 9.81398 14.5407C9.49398 13.7807 9.33398 13.054 9.33398 12.3607C9.33398 11.9073 9.41398 11.474 9.57398 11.074C9.73398 10.6673 9.98732 10.294 10.3407 9.96065C10.7673 9.54065 11.234 9.33398 11.7273 9.33398C11.914 9.33398 12.1007 9.37398 12.2673 9.45398C12.4407 9.53398 12.594 9.65398 12.714 9.82732L14.2607 12.0073C14.3807 12.174 14.4673 12.3273 14.5273 12.474C14.5873 12.614 14.6207 12.754 14.6207 12.8807C14.6207 13.0407 14.574 13.2007 14.4807 13.354C14.394 13.5073 14.2673 13.6673 14.1073 13.8273L13.6007 14.354C13.5273 14.4273 13.494 14.514 13.494 14.6207C13.494 14.674 13.5007 14.7207 13.514 14.774C13.534 14.8273 13.554 14.8673 13.5673 14.9073C13.6873 15.1273 13.894 15.414 14.1873 15.7607C14.4873 16.1073 14.8073 16.4607 15.154 16.814C15.514 17.1673 15.8607 17.494 16.214 17.794C16.5607 18.0873 16.8473 18.2873 17.074 18.4073C17.1073 18.4207 17.1473 18.4406 17.194 18.4607C17.2473 18.4806 17.3007 18.4873 17.3607 18.4873C17.474 18.4873 17.5607 18.4473 17.634 18.374L18.1407 17.874C18.3073 17.7073 18.4673 17.5807 18.6207 17.5007C18.774 17.4073 18.9273 17.3607 19.094 17.3607C19.2206 17.3607 19.354 17.3873 19.5007 17.4473C19.6473 17.5073 19.8007 17.594 19.9673 17.7073L22.174 19.274C22.3473 19.394 22.4673 19.534 22.5407 19.7007C22.6073 19.8673 22.6473 20.034 22.6473 20.2207Z" fill="white"/>
</svg>
